<svg width="15px" height="13px" viewBox="0 0 15 13" version="1.1" xmlns="http://www.w3.org/2000/svg" xmlns:xlink="http://www.w3.org/1999/xlink">
	<g id="Page-1" stroke="none" stroke-width="1" fill="none" fill-rule="evenodd">
		<g id="HP-2-Maroc" transform="translate(-34.000000, -1154.000000)" fill="#FAFAFA" fill-rule="nonzero">
			<g id="SANTé" transform="translate(-98.000000, 700.000000)">
				<g id="Group-5" transform="translate(111.000000, 419.000000)">
					<g id="whatsapp-copy" transform="translate(0.000000, 12.000000)">
						<path d="M35.7318874,34.2574382 C35.4263254,35.0606987 34.2135768,35.7268891 33.2462277,35.9214403 C32.5844406,36.0526149 31.720001,36.1572599 28.8100377,35.034169 C25.0878811,33.5986172 22.6908819,30.0775358 22.5040616,29.8490855 C22.3251574,29.6206353 21,27.9846368 21,26.2926312 C21,24.6006255 21.9230188,23.7767308 22.2950762,23.4230014 C22.6006382,23.1326485 23.1056862,23 23.5901524,23 C23.7468914,23 23.8877982,23.0073694 24.014456,23.0132649 C24.3865134,23.0280036 24.5733337,23.0486378 24.8187332,23.5954445 C25.1242952,24.2807952 25.8684098,25.9728008 25.9570703,26.1467178 C26.047314,26.3206348 26.1375577,26.5564544 26.0108999,26.7849046 C25.8921582,27.0207242 25.7876655,27.1253691 25.6008452,27.3258158 C25.4140249,27.5262625 25.236704,27.6795452 25.0498837,27.8947306 C24.8788957,28.0819124 24.6857425,28.2823591 24.9010608,28.6287191 C25.1163791,28.9677098 25.8604937,30.09817 26.9560839,31.0060755 C28.3699017,32.1778041 29.516155,32.5521677 29.9262097,32.7113459 C30.2317717,32.8292557 30.5959129,32.8012522 30.8191473,32.5801713 C31.1025441,32.2957139 31.4524364,31.8240747 31.8086615,31.3598049 C32.0619771,31.0267097 32.3817881,30.9854412 32.7174313,31.103351 C33.0594074,31.2138915 34.869031,32.0466294 35.2410883,32.2190725 C35.6131457,32.3929895 35.8585452,32.4755263 35.9487889,32.6214397 C36.0374493,32.7673531 36.0374493,33.4527038 35.7318874,34.2574382 Z" id="Path"></path>
					</g>
				</g>
			</g>
		</g>
	</g>
</svg>
