<?xml version="1.0" encoding="utf-8"?>
<!-- Generator: Adobe Illustrator 22.0.1, SVG Export Plug-In . SVG Version: 6.00 Build 0)  -->
<svg version="1.1" id="Layer_1" xmlns="http://www.w3.org/2000/svg" xmlns:xlink="http://www.w3.org/1999/xlink" x="0px" y="0px"
	 viewBox="0 0 512 512" style="enable-background:new 0 0 512 512;" xml:space="preserve">
<g>
	<g>
		<path d="M491.3,246H20.7C9.3,246,0,250.5,0,256s9.3,10,20.7,10h470.6c11.4,0,20.7-4.5,20.7-10C512,250.5,502.7,246,491.3,246z"/>
	</g>
</g>
<g>
	<g>
		<path d="M491.3,89.1H20.7C9.3,89.1,0,93.6,0,99.1c0,5.5,9.3,10,20.7,10h470.6c11.4,0,20.7-4.5,20.7-10
			C512,93.6,502.7,89.1,491.3,89.1z"/>
	</g>
</g>
<g>
	<g>
		<path d="M491.3,402.9H20.7c-11.4,0-20.7,4.5-20.7,10s9.3,10,20.7,10h470.6c11.4,0,20.7-4.5,20.7-10S502.7,402.9,491.3,402.9z"/>
	</g>
</g>
</svg>
