<svg xmlns="http://www.w3.org/2000/svg" width="17" height="14" viewBox="0 0 17 14"><g><g><path fill="#fff" d="M16.73 1.629c-.378.165-.77.296-1.173.391.444-.417.777-.939.965-1.521.054-.166-.129-.31-.28-.221a6.802 6.802 0 0 1-1.792.733.478.478 0 0 1-.426-.105A3.686 3.686 0 0 0 11.6 0c-.387 0-.777.06-1.161.177A3.53 3.53 0 0 0 8.045 2.71c-.108.45-.137.899-.087 1.336a.13.13 0 0 1-.033.102.136.136 0 0 1-.114.045A9.639 9.639 0 0 1 1.206.699a.193.193 0 0 0-.314.025 3.607 3.607 0 0 0 .596 4.41 3.304 3.304 0 0 1-.836-.32.192.192 0 0 0-.285.163 3.63 3.63 0 0 0 2.14 3.348 3.344 3.344 0 0 1-.695-.058.19.19 0 0 0-.218.244 3.663 3.663 0 0 0 2.901 2.474 6.812 6.812 0 0 1-3.788 1.139H.283a.28.28 0 0 0-.274.209.286.286 0 0 0 .139.318C1.68 13.533 3.428 14 5.203 14c1.553 0 3.007-.305 4.32-.907a9.531 9.531 0 0 0 3.16-2.345 10.26 10.26 0 0 0 1.935-3.209c.43-1.138.658-2.353.658-3.512v-.055c0-.187.085-.362.233-.481a7.198 7.198 0 0 0 1.458-1.584c.106-.157-.062-.355-.237-.278z"/></g></g></svg>