<?xml version="1.0" encoding="utf-8"?>
<!-- Generator: Adobe Illustrator 22.0.1, SVG Export Plug-In . SVG Version: 6.00 Build 0)  -->
<svg version="1.1" id="Layer_1" xmlns="http://www.w3.org/2000/svg" xmlns:xlink="http://www.w3.org/1999/xlink" x="0px" y="0px"
	 viewBox="0 0 512 334.4" style="enable-background:new 0 0 512 334.4;" xml:space="preserve">
<style type="text/css">
	.st0{fill:#FF4B55;}
	.st1{fill:#5A8250;}
</style>
<path class="st0" d="M503.2,335.4H8.8c-4.9,0-8.8-4-8.8-8.8V8.8C0,4,4,0,8.8,0h494.3c4.9,0,8.8,4,8.8,8.8v317.8
	C512,331.5,508,335.4,503.2,335.4z"/>
<path class="st1" d="M298,189.7l67.4-49.5h-83.5L256,60.6l-25.9,79.6h-83.5l67.4,49.5l-25.7,79l67.6-48.3l0.1,0l0.1,0l67.6,48.3
	L298,189.7z M311.5,157.9L292.2,172l-4.6-14.1H311.5L311.5,157.9z M234.8,183l8.2-25.1H269l8.2,25.1L256,198.6L234.8,183z
	 M256,117.7l7.3,22.5h-14.6L256,117.7z M200.5,157.9h23.9l-4.6,14.1L200.5,157.9z M221.7,223.2l7.3-22.5l11.9,8.7L221.7,223.2z
	 M283,200.7l7.3,22.5l-19.2-13.7L283,200.7z"/>
</svg>
