<?xml version="1.0" encoding="utf-8"?>
<!-- Generator: Adobe Illustrator 22.0.1, SVG Export Plug-In . SVG Version: 6.00 Build 0)  -->
<svg version="1.1" id="Layer_1" xmlns="http://www.w3.org/2000/svg" xmlns:xlink="http://www.w3.org/1999/xlink" x="0px" y="0px"
	 viewBox="0 0 512 334.5" style="enable-background:new 0 0 512 334.5;" xml:space="preserve">
<style type="text/css">
	.st0{fill:#464655;}
	.st1{fill:#FF4B55;}
	.st2{fill:#41479B;}
	.st3{fill:#73AF00;}
	.st4{fill:#F5F5F5;}
	.st5{fill:#FFE15A;}
</style>
<polygon class="st0" points="0,61.8 0,273.7 141.2,167.7 "/>
<path class="st1" d="M70.6,0l158.9,123.6H512V8.8c0-4.9-4-8.8-8.8-8.8L70.6,0L70.6,0z"/>
<path class="st2" d="M70.6,335.4l158.9-123.6H512v114.8c0,4.9-4,8.8-8.8,8.8L70.6,335.4L70.6,335.4z"/>
<path class="st3" d="M56.9,0H8.8C4,0,0,4,0,8.8V45l155,122.7L0,290.4v36.2c0,4.9,4,8.8,8.8,8.8h48.1L224.1,203H512v-70.6H224.1
	L56.9,0z"/>
<polygon class="st4" points="85.3,0 56.9,0 224.1,132.4 512,132.4 512,114.8 230.3,114.8 "/>
<polygon class="st5" points="0,45 0,67.6 126.5,167.7 0,267.9 0,290.4 155,167.7 "/>
<polygon class="st4" points="224.1,203 56.9,335.4 85.3,335.4 230.3,220.7 512,220.7 512,203 "/>
</svg>
