<?xml version="1.0" encoding="iso-8859-1"?>
<!-- Generator: Adobe Illustrator 19.0.0, SVG Export Plug-In . SVG Version: 6.00 Build 0)  -->
<svg version="1.1" id="Capa_1" xmlns="http://www.w3.org/2000/svg" xmlns:xlink="http://www.w3.org/1999/xlink" x="0px" y="0px"
	 viewBox="0 0 511.999 511.999" style="enable-background:new 0 0 511.999 511.999;" xml:space="preserve">
<g>
	<g>
		<path d="M160.922,318.838c-4.142,0-7.5,3.358-7.5,7.5v12.496c0,4.142,3.358,7.5,7.5,7.5c4.142,0,7.5-3.358,7.5-7.5v-12.496
			C168.422,322.196,165.064,318.838,160.922,318.838z"/>
	</g>
</g>
<g>
	<g>
		<path d="M299.011,318.838c-4.142,0-7.5,3.358-7.5,7.5v12.496c0,4.142,3.358,7.5,7.5,7.5c4.142,0,7.5-3.358,7.5-7.5v-12.496
			C306.511,322.196,303.153,318.838,299.011,318.838z"/>
	</g>
</g>
<g>
	<g>
		<path d="M251.944,332.317c-3.118-2.727-7.858-2.408-10.583,0.711c-2.765,3.162-6.917,4.976-11.395,4.976s-8.63-1.813-11.394-4.976
			c-2.727-3.119-7.464-3.437-10.583-0.711c-3.119,2.726-3.437,7.464-0.711,10.583c5.613,6.421,13.882,10.104,22.688,10.104
			c8.806,0,17.075-3.683,22.688-10.104C255.38,339.782,255.062,335.044,251.944,332.317z"/>
	</g>
</g>
<g>
	<g>
		<path d="M483.896,82.024c-1.074-4.168-3.708-7.667-7.411-9.848l-12.583-7.428c-2.476-1.461-5.3-2.233-8.168-2.233
			c-5.673,0.002-10.99,3.033-13.88,7.917l-69.198,117.252c-4.1-3.073-8.451-5.879-13.045-8.379
			c-3.03-24.475-12.952-47.794-28.699-66.94c-17.166-20.872-40.493-35.961-66.336-43.065c0.297-1.833,0.458-3.712,0.458-5.628
			c0-15.778-10.476-29.151-24.836-33.541c-1.638-11.822-7.377-21.652-16.831-28.657c-3.328-2.466-8.025-1.767-10.491,1.561
			s-1.767,8.025,1.561,10.491c5.303,3.93,8.744,9.118,10.298,15.47c-16.862,2.534-29.834,17.117-29.834,34.675
			c0,1.918,0.161,3.799,0.459,5.635c-16.561,4.559-32.28,12.446-45.856,23.075c-3.262,2.553-3.836,7.267-1.283,10.528
			c2.553,3.261,7.268,3.836,10.529,1.282c12.455-9.75,26.943-16.901,42.184-20.857c0.296,0.438,0.612,0.859,0.927,1.281
			c0.007,0.009,0.013,0.018,0.02,0.027c6.324,8.584,16.775,13.847,27.408,14.086c10.577,0.238,21.124-4.662,27.804-12.862
			c0.668-0.816,1.314-1.654,1.91-2.534c23.508,6.094,44.769,19.646,60.325,38.56c14.793,17.986,23.781,40.136,25.826,63.254
			c0.298,3.37,0.452,6.759,0.452,10.143c0,12.839-10.446,23.285-23.285,23.285s-23.284-10.445-23.284-23.284
			c0-4.079-3.423-7.5-7.5-7.5c-4.079,0-7.5,3.42-7.5,7.5c0,12.839-10.445,23.284-23.284,23.284c-8.471,0-16.604-4.912-20.571-12.392
			c-1.729-3.252-2.714-6.959-2.714-10.893c0-4.142-3.358-7.5-7.5-7.5c-4.142,0-7.5,3.358-7.5,7.5c0,3.932-0.983,7.637-2.711,10.888
			c-3.97,7.47-12.098,12.396-20.573,12.396c-12.839,0-23.284-10.445-23.284-23.284c0-4.05-3.444-7.5-7.5-7.5
			c-4.024,0-7.5,3.468-7.5,7.5c0,12.839-10.445,23.284-23.284,23.284s-23.284-10.445-23.284-23.284c0-3.515,0.17-7.044,0.481-10.543
			c1.976-22.139,10.167-42.921,24.012-60.624c2.552-3.263,1.976-7.977-1.287-10.528c-3.264-2.552-7.977-1.975-10.528,1.287
			c-14.797,18.92-23.886,40.948-26.717,64.441c-34.085,18.565-55.087,53.738-55.087,92.788c0,1.94,0.069,3.896,0.178,5.854h-3.927
			c-4.352,0-8.364,1.981-11.009,5.435c-2.641,3.449-3.506,7.832-2.374,12.025c3.878,14.362,14.862,42.084,44.842,66.39
			c31.698,25.698,75.51,40.432,130.467,43.949v10.969c0,9.925-5.944,18.917-15.142,22.909
			c-12.981,5.634-30.539,15.709-42.096,32.019c-5.043,1.861-15.709,6.811-23.843,17.532c-3.267,4.306-3.797,10-1.385,14.859
			c2.435,4.902,7.339,7.948,12.801,7.948h192.499c5.461,0,10.367-3.045,12.801-7.948c2.413-4.859,1.882-10.553-1.385-14.859
			c-8.133-10.72-18.797-15.669-23.841-17.531c-11.558-16.31-29.115-26.386-42.097-32.02c-9.199-3.992-15.143-12.984-15.143-22.909
			v-10.989c32.148-2.083,60.691-8.025,85.084-17.775c3.846-1.538,5.718-5.902,4.181-9.748c-1.538-3.846-5.902-5.718-9.748-4.181
			c-24.838,9.928-54.447,15.67-88.183,17.156c-12.208,0.538-24.444,0.559-36.651-0.028c-0.05-0.002-0.1,0.002-0.15,0.001
			c-54.975-2.52-98.222-16.278-128.723-41.006c-25.71-20.844-35.659-44.232-39.402-57.199h374.014
			c-3.929,13.536-16.556,44.188-53.861,67.485c-3.514,2.194-4.583,6.821-2.389,10.334c2.193,3.513,6.82,4.583,10.334,2.389
			c41.663-26.019,55.979-59.88,60.804-77.748c1.132-4.193,0.267-8.576-2.374-12.025c-2.645-3.454-6.658-5.435-11.009-5.435h-3.926
			c0.109-1.958,0.178-3.913,0.178-5.854c0-16.309-3.667-31.94-10.417-45.97l77.85-131.909
			C484.355,90.526,484.97,86.191,483.896,82.024z M229.966,83.737c-10.899,0-20.066-9.18-20.066-20.066
			c0-11.064,9.002-20.066,20.066-20.066c11.064,0,20.066,9.001,20.066,20.066C250.032,74.557,240.851,83.737,229.966,83.737z
			 M307.926,485.494c2.504,0.851,10.501,4.02,16.753,11.506H135.253c6.268-7.506,14.29-10.671,16.747-11.506H307.926z
			 M218.381,416.734v-10.291c0.009,0.188,10.945,0.157,11.584,0.157c0.073,0,0.144-0.002,0.217-0.002
			c3.79-0.001,7.581-0.054,11.368-0.158v10.294c0,15.904,9.488,30.297,24.171,36.669c8.195,3.556,18.47,9.091,27.138,17.091H167.073
			c8.668-8,18.944-13.535,27.138-17.091C208.894,447.031,218.381,432.637,218.381,416.734z M241.354,277.965H60.394
			c-0.127-1.96-0.191-3.915-0.191-5.854c0-30.301,14.734-57.885,39.186-74.669c0.021,0.377,0.058,0.75,0.09,1.125
			c0.917,10.741,6.633,20.981,15.285,27.412c7.835,5.824,17.811,8.493,27.504,7.314c10.683-1.301,20.022-7.019,26.129-15.267
			c3.927,5.302,9.188,9.559,15.284,12.269c7.072,3.144,15.072,4.054,22.672,2.601c7.628-1.459,14.721-5.231,20.157-10.785
			c0.146,0.22,0.287,0.442,0.43,0.663c8.254,12.735,13.218,27.411,14.355,42.595C241.609,269.565,241.624,273.766,241.354,277.965z
			 M399.537,277.965h-143.15c0.028-0.507,0.19-7.542,0.056-10.552c-0.541-12.449-3.223-24.525-7.93-35.833
			c1.666,0.56,3.38,1,5.126,1.328c3.873,0.727,7.854,0.862,11.766,0.386c10.683-1.301,20.022-7.019,26.129-15.267
			c4.307,5.816,10.224,10.368,17.082,13.006c14.675,5.645,31.764,1.439,42.242-10.26c5.503-6.145,8.889-13.978,9.594-22.196
			c0.032-0.378,0.07-0.754,0.091-1.135c3.032,2.081,5.913,4.329,8.636,6.727C389.94,222.451,401.33,250.393,399.537,277.965z
			 M395.624,211.348c-3.41-4.854-7.241-9.422-11.457-13.658l6.792-11.51l11.095,14.272L395.624,211.348z M410.255,186.56
			l-11.096-14.274l9.529-16.151l11.102,14.275L410.255,186.56z M427.988,156.518l-11.102-14.274l9.533-16.144l11.097,14.268
			L427.988,156.518z M445.714,126.475l-11.095-14.265l9.527-16.148l11.094,14.271L445.714,126.475z M469.248,86.6l-5.809,9.84
			l-11.096-14.272l2.423-4.104c0.302-0.508,0.816-0.547,0.966-0.547c0.194,0,0.373,0.049,0.544,0.151l12.589,7.431
			C469.384,85.405,469.553,86.084,469.248,86.6z"/>
	</g>
</g>
<g>
</g>
<g>
</g>
<g>
</g>
<g>
</g>
<g>
</g>
<g>
</g>
<g>
</g>
<g>
</g>
<g>
</g>
<g>
</g>
<g>
</g>
<g>
</g>
<g>
</g>
<g>
</g>
<g>
</g>
</svg>
