<?xml version="1.0" encoding="iso-8859-1"?>
<!-- Generator: Adobe Illustrator 19.0.0, SVG Export Plug-In . SVG Version: 6.00 Build 0)  -->
<svg version="1.1" id="Capa_1" xmlns="http://www.w3.org/2000/svg" xmlns:xlink="http://www.w3.org/1999/xlink" x="0px" y="0px"
	 viewBox="0 0 512.001 512.001" style="enable-background:new 0 0 512.001 512.001;" xml:space="preserve">
<g>
	<g>
		<path d="M390.477,126.705c-2.87-2.986-7.618-3.078-10.604-0.207c-2.986,2.871-3.078,7.619-0.207,10.604
			c30.885,32.114,47.894,74.34,47.894,118.898c0,94.597-76.96,171.558-171.558,171.558c-39.488,0-76.607-13.051-107.345-37.74
			c-3.229-2.594-7.95-2.078-10.544,1.15c-2.594,3.229-2.079,7.95,1.15,10.544c32.952,26.469,74.411,41.046,116.738,41.046
			c102.869,0,186.558-83.689,186.558-186.558C442.559,207.545,424.062,161.627,390.477,126.705z"/>
	</g>
</g>
<g>
	<g>
		<path d="M366.939,106.006c-32.291-23.92-70.652-36.564-110.938-36.564C153.132,69.442,69.443,153.131,69.443,256
			c0,45.772,16.75,89.8,47.165,123.974c2.684,3.016,7.522,3.345,10.589,0.616c3.094-2.754,3.37-7.495,0.616-10.589
			C99.845,338.577,84.443,298.09,84.443,256c0-94.597,76.96-171.558,171.558-171.558c37.047,0,72.321,11.625,102.009,33.618
			c3.327,2.465,8.025,1.767,10.491-1.563C370.967,113.169,370.268,108.472,366.939,106.006z"/>
	</g>
</g>
<g>
	<g>
		<path d="M510.473,251.914c2.164-2.849,2.015-6.829-0.356-9.508l-12.472-14.096c-8.167-9.229-10.612-22.151-6.381-33.725
			l6.461-17.675c1.229-3.36-0.087-7.119-3.142-8.98l-16.072-9.79c-10.525-6.411-16.67-18.039-16.039-30.346L463.438,109
			c0.183-3.573-2.182-6.777-5.65-7.655l-18.243-4.618c-11.947-3.023-21.247-12.324-24.271-24.27l-4.618-18.243
			c-0.877-3.467-4.063-5.827-7.655-5.65l-18.794,0.964c-12.251,0.63-24.005-5.627-30.346-16.038l-9.79-16.072
			c-1.861-3.055-5.62-4.371-8.98-3.142l-17.674,6.461c-3.7,1.353-7.57,2.038-11.504,2.038c-8.194,0.001-16.086-2.989-22.221-8.42
			L269.599,1.883c-2.679-2.37-6.659-2.52-9.508-0.355c0,0-14.981,11.381-14.985,11.384c-9.707,7.374-23.013,8.868-34.108,3.843
			l-17.142-7.764c-3.26-1.476-7.106-0.445-9.19,2.462c0,0-10.957,15.286-10.964,15.295c-7.031,9.809-19.484,15.245-31.459,13.726
			l-18.669-2.367c-3.549-0.451-6.922,1.669-8.056,5.062l-5.968,17.847c-3.909,11.688-13.877,20.267-26.016,22.39l-18.538,3.241
			c-3.524,0.616-6.122,3.635-6.206,7.211l-0.442,18.813c-0.29,12.32-7.287,23.457-18.261,29.063l-16.758,8.562
			c-3.186,1.627-4.778,5.278-3.805,8.72l5.123,18.108c3.354,11.858-0.049,24.563-8.883,33.154L2.272,223.4
			c-2.564,2.494-3.01,6.453-1.065,9.455l10.232,15.793c6.7,10.343,7.192,23.486,1.283,34.3l-9.023,16.514
			c-1.715,3.139-0.975,7.053,1.769,9.348l14.433,12.076c9.451,7.908,13.795,20.322,11.336,32.397l-3.755,18.44
			c-0.714,3.505,1.147,7.027,4.446,8.412l17.351,7.285c11.363,4.771,19.173,15.353,20.382,27.617l1.847,18.728
			c0.351,3.56,3.167,6.377,6.728,6.728l18.728,1.847c12.264,1.209,22.846,9.02,27.617,20.382l7.285,17.351
			c1.385,3.299,4.908,5.159,8.412,4.446l18.44-3.755c2.2-0.448,4.451-0.675,6.691-0.675c9.95,0,19.32,4.378,25.707,12.012
			l12.076,14.433c2.295,2.744,6.21,3.483,9.348,1.769c0,0,16.511-9.022,16.514-9.023c10.706-5.85,24.063-5.349,34.3,1.283
			l15.793,10.232c1.251,0.811,2.667,1.206,4.076,1.206c1.971,0,3.924-0.775,5.379-2.271l13.121-13.49
			c6.274-6.451,15.033-10.15,24.032-10.15c3.081,0,6.15,0.426,9.122,1.267l18.108,5.122c3.443,0.974,7.093-0.619,8.72-3.805
			l8.562-16.758c5.606-10.974,16.743-17.971,29.063-18.261l18.813-0.442c3.576-0.084,6.595-2.682,7.211-6.206l3.242-18.537
			c2.122-12.139,10.701-22.108,22.388-26.016l17.847-5.968c3.393-1.135,5.512-4.507,5.062-8.056l-2.366-18.669
			c-1.549-12.226,3.71-24.281,13.726-31.46l15.295-10.963c2.907-2.084,3.938-5.931,2.462-9.19l-7.764-17.143
			c-5.084-11.225-3.612-24.294,3.843-34.107L510.473,251.914z M487.145,257.82c-10.791,14.204-12.922,33.122-5.563,49.371
			l5.226,11.537l-10.294,7.379c-14.498,10.392-22.111,27.841-19.868,45.538l1.592,12.565l-12.011,4.017
			c-16.917,5.657-29.335,20.087-32.407,37.658l-2.182,12.476l-12.662,0.298c-17.833,0.42-33.953,10.548-42.068,26.433l-5.762,11.279
			l-12.187-3.448c-4.3-1.217-8.743-1.833-13.205-1.833c-13.025,0-25.704,5.355-34.785,14.692l-8.831,9.079
			c0,0-10.627-6.885-10.629-6.886c-14.814-9.598-34.157-10.323-49.648-1.858l-11.114,6.073l-8.127-9.714
			c-9.245-11.049-22.808-17.386-37.211-17.386c-3.243,0-6.501,0.329-9.684,0.977l-12.41,2.527l-4.903-11.678
			c-6.906-16.447-22.223-27.752-39.975-29.502l-12.604-1.243l-1.243-12.604c-1.751-17.752-13.056-33.069-29.503-39.975
			l-11.677-4.903l2.527-12.411c3.56-17.479-2.728-35.448-16.409-46.895l-9.714-8.127l6.073-11.114
			c8.553-15.653,7.841-34.677-1.857-49.648l-6.887-10.629l9.08-8.83c12.787-12.438,17.714-30.826,12.858-47.99l-3.448-12.187
			l11.279-5.762c15.885-8.115,26.014-24.235,26.433-42.068l0.297-12.662l12.477-2.182c17.571-3.072,32.001-15.49,37.658-32.407
			l4.017-12.012l12.565,1.593c17.486,2.214,35.265-5.538,45.537-19.868l7.379-10.294c0,0,11.533,5.223,11.537,5.225
			c16.065,7.276,35.322,5.111,49.371-5.563l10.085-7.662l9.484,8.394c8.881,7.86,20.303,12.188,32.163,12.187
			c5.696,0,11.299-0.993,16.654-2.95l11.895-4.349l6.589,10.816c9.178,15.067,26.182,24.123,43.925,23.215l12.649-0.649
			l3.108,12.278c4.377,17.292,17.838,30.753,35.131,35.131l12.278,3.107l-0.649,12.649c-0.914,17.815,7.981,34.646,23.215,43.925
			l10.817,6.589l-4.349,11.896c-6.125,16.753-2.586,35.459,9.236,48.816l8.394,9.485L487.145,257.82z"/>
	</g>
</g>
<g>
	<g>
		<path d="M153.026,234.208c-4.142,0-7.5,3.358-7.5,7.5v18.637c0,4.142,3.358,7.5,7.5,7.5c4.142,0,7.5-3.358,7.5-7.5v-18.637
			C160.526,237.566,157.168,234.208,153.026,234.208z"/>
	</g>
</g>
<g>
	<g>
		<path d="M358.976,234.208c-4.142,0-7.5,3.358-7.5,7.5v18.637c0,4.142,3.358,7.5,7.5,7.5c4.142,0,7.5-3.358,7.5-7.5v-18.637
			C366.476,237.566,363.118,234.208,358.976,234.208z"/>
	</g>
</g>
<g>
	<g>
		<path d="M286.353,253.402c-3.119-2.728-7.858-2.409-10.583,0.71c-4.823,5.517-12.028,8.68-19.769,8.68
			c-7.741,0-14.947-3.164-19.769-8.681c-2.727-3.119-7.464-3.437-10.583-0.71c-3.119,2.726-3.437,7.464-0.711,10.583
			c7.671,8.776,18.993,13.809,31.063,13.809c12.069,0,23.391-5.033,31.062-13.808C289.79,260.866,289.471,256.128,286.353,253.402z"
			/>
	</g>
</g>
<g>
</g>
<g>
</g>
<g>
</g>
<g>
</g>
<g>
</g>
<g>
</g>
<g>
</g>
<g>
</g>
<g>
</g>
<g>
</g>
<g>
</g>
<g>
</g>
<g>
</g>
<g>
</g>
<g>
</g>
</svg>
